# xmcd
#
# Track frame offsets: 
#        150
#        12459
#        25111
#        37065
#        51083
#        63701
#        74868
#        86358
#        98300
#        110557
#        122576
#        134692
#        147916
#        160108
#        171371
#        182660
#        195797
#        209468
#        220616
#        230838
#        241131
#        253431
#        264933
#        274181
#        285917
#
# Disc length: 3938 seconds
#
# Revision: 0
# Processed by: cddbd v1.5.2PL0 Copyright (c) Steve Scherf et al.
# Submitted via: ExactAudioCopy v0.95b4
#
DISCID=720f6019
DTITLE=Wynonie Harris - The Very Best Of
DYEAR=2006
DGENRE=Oldies
TTITLE0=Good Rockin' Tonight
TTITLE1=Lolipop Mama
TTITLE2=Grandma Plays The Numbers
TTITLE3=I Want My Fannie Brown
TTITLE4=I Feel That Old Age Coming On
TTITLE5=Drinkin' Wine Spo-Dee-O-Dee
TTITLE6=All She Wants To Do Is Rock
TTITLE7=Sittin' on It All The Time
TTITLE8=I like My Baby's Puddin'
TTITLE9=Rock Mr. Blues
TTITLE10=Good Morning Judge
TTITLE11=Oh Babe
TTITLE12=Bloodshot Eyes
TTITLE13=Lovin' Machine
TTITLE14=My Playful Baby's Gone
TTITLE15=Keep On Churnin'
TTITLE16=Bad News Baby (They'll Be No Rockin' Tonight)
TTITLE17=Quiet Whiskey
TTITLE18=Don't Take My Whiskey Away From Me
TTITLE19=Shake That Thing
TTITLE20=Christina
TTITLE21=Drinkin' Sherry Wine
TTITLE22=Wine Wine Sweet Wine
TTITLE23=Fishtail Blues
TTITLE24=Mr. Dollar
EXTD=
EXTT0=
EXTT1=
EXTT2=
EXTT3=
EXTT4=
EXTT5=
EXTT6=
EXTT7=
EXTT8=
EXTT9=
EXTT10=
EXTT11=
EXTT12=
EXTT13=
EXTT14=
EXTT15=
EXTT16=
EXTT17=
EXTT18=
EXTT19=
EXTT20=
EXTT21=
EXTT22=
EXTT23=
EXTT24=
PLAYORDER=
